# xmcd CD database file
#
# Track frame offsets:
#	150
#	34787
#	62610
#	99115
#	106020
#	147525
#	159095
#	203900
#	228232
#	269122
#
# Disc length: 4364 seconds
#
# Revision: 0
# Processed by: cddbd v1.5.1PL2 Copyright (c) Steve Scherf et al.
# Submitted via: CDex 1.51
#
DISCID=7f110a0a
DTITLE=ショパン - ピアノ・ソナタ弟2番「葬送」、第3番他_マレイ・ペライア1973.1983
DYEAR=1900
DGENRE=クラシック (一般)
TTITLE0=ピアノ・ソナタ弟2番変ロ短調Op.35「葬送」_第1楽章グラーヴェドッピオ・モヴィメント
TTITLE1=ピアノ・ソナタ弟2番変ロ短調Op.35「葬送」_第2楽章スケルツォ
TTITLE2=ピアノ・ソナタ弟2番変ロ短調Op.35「葬送」_第3楽章レント
TTITLE3=ピアノ・ソナタ弟2番変ロ短調Op.35「葬送」_第1楽章フィナーレ：プレスト
TTITLE4=ピアノ・ソナタ第3番ロ短調Op.58_第1楽章アレグロ・マエストーゾ
TTITLE5=ピアノ・ソナタ第3番ロ短調Op.58_第2楽章スケルツォ：モルト・ヴィヴァーチェ
TTITLE6=ピアノ・ソナタ第3番ロ短調Op.58_第3楽章ラルゴ
TTITLE7=ピアノ・ソナタ第3番ロ短調Op.58_第4楽章フィナーレ：プレスト、マ・ノン・タント
TTITLE8=舟歌嬰ヘ長調作品60
TTITLE9=幻想曲ヘ短調作品49
EXTD=
EXTT0=
EXTT1=
EXTT2=
EXTT3=
EXTT4=
EXTT5=
EXTT6=
EXTT7=
EXTT8=
EXTT9=
PLAYORDER=
